:SAMPLES-PER-SECOND 30
:FRAME-RANGE 1-3549
:FULLY-SPECIFIED
:DEGREES
555
root  33.4716 37.9649 -49.2272 175.09 -47.7829 -173.808
RightUpLeg  9.33754 -33.5932 -8.08625
RightLeg  39.468 4.71691 3.88594
RightFoot  -11.5085 -0.0330814 30.9634
RightToes  -1.11029e-010 1.2921e-014 -6.02303e-014
Spine  5.97877 6.13304 4.53913
Spine1  -2.52891 8.18899 -12.0203
HEad  -16.6633 52.955 -13.8853
LeftShoulder1  0.456238 2.31362 -32.2393
LeftArm  -5.22613 27.1278 -20.5159
LeftForeArm  3.36406 0.945051 -17.4071
LeftHand  0.192557 1.48029 -6.05262
RightShoulder  8.75941 11.3411 51.6547
RightArm  33.3523 -0.238216 16.9829
RightForeArm  6.46961 19.7683 6.84538
RightHand  -0.211773 5.80563 -2.51902
LeftUpLeg  -16.2857 17.5583 -14.5891
LeftLeg  22.6616 21.9529 9.31778
LeftFoot  -15.7609 0.623049 13.6111
LeftToes  -1.9349e-011 -1.19469e-011 -2.02219e-012
556
root  33.2768 37.7265 -50.0272 176.12 -49.4054 -175.471
RightUpLeg  -0.0656713 -26.5093 -7.8964
RightLeg  54.3151 5.37985 7.6178
RightFoot  0.783723 -2.79169 25.9187
RightToes  -1.11029e-010 1.2921e-014 -6.02303e-014
Spine  6.78976 6.11766 3.50522
Spine1  -2.54804 8.24335 -13.4426
HEad  -17.5932 52.5984 -15.986
LeftShoulder1  0.557013 2.0705 -32.771
LeftArm  -4.3589 24.0748 -20.0873
LeftForeArm  3.35219 1.32939 -17.5772
LeftHand  0.168014 1.63407 -5.56363
RightShoulder  9.13159 11.8985 51.8918
RightArm  33.6127 -0.366343 18.6768
RightForeArm  4.67618 21.0976 5.80808
RightHand  -0.221611 5.74349 -2.63204
LeftUpLeg  -16.5822 17.9573 -15.3133
LeftLeg  26.2574 20.033 10.7553
LeftFoot  -17.6801 0.806735 12.5877
LeftToes  -1.9349e-011 -1.19469e-011 -2.02219e-012
557
root  33.1237 37.4745 -50.741 177.043 -51.252 -177.13
RightUpLeg  -7.99748 -19.5723 -8.36443
RightLeg  64.4431 5.16313 11.1004
RightFoot  12.0837 -3.90189 19.0702
RightToes  -1.11029e-010 1.2921e-014 -6.02303e-014
Spine  7.90399 6.09918 2.44471
Spine1  -2.14917 8.24701 -15.0455
HEad  -18.8786 52.0957 -18.7233
LeftShoulder1  0.626189 1.91513 -33.3236
LeftArm  -3.26025 19.8727 -20.4993
LeftForeArm  2.96332 1.07419 -17.7273
LeftHand  0.157294 1.60191 -5.17594
RightShoulder  9.61631 12.6629 52.0536
RightArm  33.5202 -0.768204 19.3357
RightForeArm  4.08922 23.9569 4.91303
RightHand  -0.239557 5.61984 -2.84358
LeftUpLeg  -16.4701 17.8717 -15.5921
LeftLeg  29.3964 18.5039 11.3057
LeftFoot  -19.6554 0.975132 11.7406
LeftToes  -1.9349e-011 -1.19469e-011 -2.02219e-012
558
root  32.8674 37.4831 -51.4931 176.662 -54.9839 -177.253
RightUpLeg  -12.5564 -15.766 -9.37925
RightLeg  69.5046 2.27064 5.99399
RightFoot  9.30594 -3.21279 17.862
RightToes  -1.11029e-010 1.2921e-014 -6.02303e-014
Spine  8.50994 5.49396 1.20455
Spine1  -1.58503 7.36033 -14.5225
HEad  -18.9855 51.4838 -19.8235
LeftShoulder1  0.779285 1.57601 -34.3253
LeftArm  -1.47507 14.9027 -21.4403
LeftForeArm  3.02181 0.438492 -17.8651
LeftHand  0.144872 1.43487 -4.55412
RightShoulder  9.64838 12.8225 51.724
RightArm  32.3993 -0.60426 19.5618
RightForeArm  7.61161 26.0865 5.2009
RightHand  -0.306635 5.56033 -3.5654
LeftUpLeg  -14.7014 15.6627 -14.6721
LeftLeg  30.4007 17.2799 11.0303
LeftFoot  -20.5715 1.01229 10.9671
LeftToes  -1.9349e-011 -1.19469e-011 -2.02219e-012
559
root  32.4483 37.7873 -52.2499 174.25 -60.2395 -174.912
RightUpLeg  -15.4337 -14.4015 -9.27352
RightLeg  69.758 -0.538197 -2.41205
RightFoot  9.74797 -1.70324 9.49248
RightToes  -1.11029e-010 1.2921e-014 -6.02303e-014
Spine  8.6429 4.50989 1.04454
Spine1  -1.19607 6.17603 -13.0187
HEad  -17.7696 50.2675 -18.8317
LeftShoulder1  0.941137 1.18544 -34.5007
LeftArm  0.658037 9.50431 -23.8778
LeftForeArm  4.64062 -0.397146 -17.8655
LeftHand  0.13683 1.03718 -3.85182
RightShoulder  9.14921 12.1357 51.2166
RightArm  31.4297 -0.660971 19.4239
RightForeArm  11.5377 27.4552 5.3005
RightHand  -0.413819 5.60767 -4.68125
LeftUpLeg  -11.5755 12.0732 -12.5135
LeftLeg  29.0497 15.9911 9.76515
LeftFoot  -20.4898 0.962368 10.4532
LeftToes  -1.9349e-011 -1.19469e-011 -2.02219e-012
560
root  31.9796 38.2262 -52.9655 171.059 -65.5275 -171.143
RightUpLeg  -17.9028 -13.6066 -8.57555
RightLeg  66.71 -3.51105 -9.56131
RightFoot  8.07653 -0.50063 3.24938
RightToes  -1.11029e-010 1.2921e-014 -6.02303e-014
Spine  8.45431 3.72942 0.931187
Spine1  -1.30737 5.19102 -11.1748
HEad  -16.1801 48.5834 -16.8914
LeftShoulder1  1.04638 0.909235 -34.2445
LeftArm  4.11273 4.54542 -27.0599
LeftForeArm  5.98976 -2.83293 -17.49
LeftHand  0.123679 0.457564 -3.00161
RightShoulder  8.71346 11.4977 50.8617
RightArm  29.9026 -1.60825 18.6046
RightForeArm  13.1445 28.7364 5.50993
RightHand  -0.464007 5.52106 -5.24606
LeftUpLeg  -8.6225 8.7687 -10.1257
LeftLeg  26.1326 14.0457 7.50857
LeftFoot  -19.7672 0.863669 10.079
LeftToes  -1.9349e-011 -1.19469e-011 -2.02219e-012
561
root  31.4964 38.6501 -53.628 166.884 -70.2943 -166.166
RightUpLeg  -19.6444 -12.6288 -7.91846
RightLeg  60.3773 -5.68876 -11.1852
RightFoot  4.92824 -0.465344 3.49007
RightToes  -1.11029e-010 1.2921e-014 -6.02303e-014
Spine  8.50054 3.15295 0.864707
Spine1  -1.87287 4.4552 -9.7148
HEad  -15.1271 46.8154 -15.1483
LeftShoulder1  1.13973 0.654532 -33.9242
LeftArm  10.3891 0.661538 -30.3507
LeftForeArm  6.0783 -7.60862 -16.0537
LeftHand  0.107258 -0.485123 -2.08256
RightShoulder  8.19013 10.6415 50.7077
RightArm  28.5841 -2.52531 17.6552
RightForeArm  13.227 29.6823 5.73007
RightHand  -0.501312 5.32322 -5.73487
LeftUpLeg  -6.15749 5.74467 -7.94788
LeftLeg  22.9175 12.0998 5.40012
LeftFoot  -18.753 0.757427 9.92252
LeftToes  -1.9349e-011 -1.19469e-011 -2.02219e-012
562
root  31.0004 39.0333 -54.2564 160.755 -74.7077 -159.154
RightUpLeg  -20.4921 -11.8307 -7.28098
RightLeg  50.9353 -7.02589 -9.53212
RightFoot  3.44594 -0.703568 5.59879
RightToes  -1.11029e-010 1.2921e-014 -6.02303e-014
Spine  8.48577 2.64799 0.67018
Spine1  -2.34474 3.81594 -8.22715
HEad  -14.7545 44.831 -14.1373
LeftShoulder1  1.23292 0.414041 -33.832
LeftArm  18.6012 -2.43958 -33.2249
LeftForeArm  4.5875 -13.6418 -12.6923
LeftHand  0.0398898 -1.2305 -0.585484
RightShoulder  7.67347 9.80805 50.4906
RightArm  26.6623 -3.36765 16.8712
RightForeArm  14.2107 30.4712 5.86534
RightHand  -0.569903 5.23837 -6.52238
LeftUpLeg  -4.00889 4.251 -5.88337
LeftLeg  19.4481 8.81369 3.32888
LeftFoot  -17.762 0.659703 9.82717
LeftToes  -1.9349e-011 -1.19469e-011 -2.02219e-012
563
root  30.4651 39.3249 -54.8667 151.741 -78.3888 -149.138
RightUpLeg  -20.5393 -10.7524 -6.73967
RightLeg  39.0939 -7.93888 -7.12221
RightFoot  3.03313 -0.994084 8.0352
RightToes  -1.11029e-010 1.2921e-014 -6.02303e-014
Spine  8.14789 2.23768 0.629681
Spine1  -2.40375 3.3745 -7.18947
HEad  -15.1969 42.8317 -13.7146
LeftShoulder1  1.30485 0.23613 -33.8632
LeftArm  24.6707 -4.80869 -35.5275
LeftForeArm  1.17631 -19.6221 -7.50054
LeftHand  -0.0355789 -1.78877 0.735646
RightShoulder  7.24542 9.14574 50.1769
RightArm  24.5338 -3.98126 16.1446
RightForeArm  15.3778 31.5171 6.05621
RightHand  -0.582351 5.26927 -6.64021
LeftUpLeg  -2.3986 4.168 -3.85977
LeftLeg  16.4354 4.57876 1.55155
LeftFoot  -17.0299 0.5825 9.63441
LeftToes  -1.9349e-011 -1.19469e-011 -2.02219e-012
564
root  29.9117 39.4788 -55.4542 141.185 -81.1495 -137.466
RightUpLeg  -19.9623 -9.11644 -6.70196
RightLeg  25.3486 -9.2177 -4.94347
RightFoot  3.00423 -1.36855 11.0073
RightToes  -1.11029e-010 1.2921e-014 -6.02303e-014
Spine  8.00935 1.97716 0.423411
Spine1  -2.92915 3.13471 -6.73353
HEad  -15.5831 41.1475 -13.3503
LeftShoulder1  1.37279 0.0895462 -34.1375
LeftArm  19.1872 -6.37091 -36.3104
LeftForeArm  3.80572 -25.5697 -5.28295
LeftHand  -0.0496933 -2.05214 0.952665
RightShoulder  6.8936 8.64507 49.7139
RightArm  22.3619 -4.48803 15.5751
RightForeArm  17.0018 32.9039 6.31204
RightHand  -0.602951 5.14896 -6.93523
LeftUpLeg  -1.59561 4.48083 -2.34124
LeftLeg  14.5333 0.582057 0.256573
LeftFoot  -16.7128 0.54271 9.40019
LeftToes  -1.9349e-011 -1.19469e-011 -2.02219e-012
565
root  29.2886 39.5282 -56.0403 124.657 -83.6252 -120.016
RightUpLeg  -18.6941 -7.71653 -7.22579
RightLeg  11.7006 -9.76557 -2.36442
RightFoot  2.41919 -1.38163 11.5517
RightToes  -1.11029e-010 1.2921e-014 -6.02303e-014
Spine  7.68412 1.62031 -0.185912
Spine1  -2.86265 2.76543 -6.25188
HEad  -16.215 39.5463 -13.3172
LeftShoulder1  1.39596 0.0760506 -34.6474
LeftArm  8.18687 -7.90039 -35.9052
LeftForeArm  8.05038 -32.3239 -6.6785
LeftHand  0.142083 -2.35399 -1.94443
RightShoulder  6.5485 8.20672 48.9966
RightArm  20.0088 -4.6935 15.2073
RightForeArm  18.6236 35.0828 6.78791
RightHand  -0.667696 4.97949 -7.76044
LeftUpLeg  -0.921978 4.59703 -1.38375
LeftLeg  13.355 -2.86415 -0.5531
LeftFoot  -16.8877 0.53953 9.01816
LeftToes  -1.9349e-011 -1.19469e-011 -2.02219e-012
566
root  28.5309 39.4675 -56.6218 100.701 -84.8902 -96.1624
RightUpLeg  -16.6819 -6.53937 -7.57482
RightLeg  1.19588 -9.5577 0.0635991
RightFoot  1.19748 -1.41273 12.884
RightToes  -1.11029e-010 1.2921e-014 -6.02303e-014
Spine  8.07731 1.41703 -0.172339
Spine1  -2.64453 2.64045 -6.37917
HEad  -16.9682 38.2405 -13.7426
LeftShoulder1  1.42854 0.0258426 -34.9906
LeftArm  0.800114 -9.39778 -35.1273
LeftForeArm  10.8102 -38.6504 -8.28961
LeftHand  0.207467 -2.29684 -2.9539
RightShoulder  6.36087 8.02737 48.3309
RightArm  18.1264 -4.51828 14.4923
RightForeArm  20.1427 37.5713 7.38701
RightHand  -0.688308 4.81635 -8.10832
LeftUpLeg  0.626296 4.97674 -0.307454
LeftLeg  13.0678 -6.00393 -1.1471
LeftFoot  -17.8155 0.58408 8.41401
LeftToes  -1.9349e-011 -1.19469e-011 -2.02219e-012
567
root  27.6554 39.31 -57.2109 78.5726 -85.0576 -74.4799
RightUpLeg  -15.7572 -6.19087 -6.95015
RightLeg  -2.69055 -7.03408 1.0314
RightFoot  -0.174885 -1.44789 14.7241
RightToes  -1.11029e-010 1.2921e-014 -6.02303e-014
Spine  8.20213 1.4257 0.169058
Spine1  -2.08795 2.74538 -6.56126
HEad  -17.0289 37.5021 -14.408
LeftShoulder1  1.45121 -0.0356982 -34.9194
LeftArm  -3.72188 -10.8886 -34.2395
LeftForeArm  14.9502 -43.1508 -9.49168
LeftHand  0.162285 -2.25622 -2.28531
RightShoulder  6.47986 8.35746 47.8583
RightArm  17.0734 -3.56257 13.3087
RightForeArm  21.2654 39.4992 7.88516
RightHand  -0.693196 4.83585 -8.14917
LeftUpLeg  2.25949 4.96293 0.723878
LeftLeg  13.7365 -8.0223 -1.28845
LeftFoot  -19.409 0.645392 7.48374
LeftToes  -1.9349e-011 -1.19469e-011 -2.02219e-012
568
root  26.7422 39.2219 -57.7511 69.3928 -84.1241 -65.8332
RightUpLeg  -16.2508 -4.58406 -4.80879
RightLeg  -0.0173241 -2.60071 0.497796
RightFoot  1.27784 -1.29575 11.7597
RightToes  -1.11029e-010 1.2921e-014 -6.02303e-014
Spine  8.69143 1.58254 2.10163
Spine1  -1.84957 2.97035 -6.49821
HEad  -15.5002 37.5613 -14.4837
LeftShoulder1  1.43045 -0.0187243 -34.5343
LeftArm  -7.20905 -11.5979 -33.023
LeftForeArm  19.6839 -46.139 -10.2582
LeftHand  0.0679793 -2.07673 -0.884886
RightShoulder  6.79355 9.14647 47.0278
RightArm  15.8102 -2.54193 12.9069
RightForeArm  22.5285 40.6174 8.14797
RightHand  -0.71304 4.41796 -8.70493
LeftUpLeg  4.15564 3.54203 2.19945
LeftLeg  13.9247 -7.94218 -0.685242
LeftFoot  -20.6269 0.622343 6.12903
LeftToes  -1.9349e-011 -1.19469e-011 -2.02219e-012
569
root  25.7554 38.9987 -58.2809 61.5548 -83.0316 -58.5233
RightUpLeg  -17.0803 -2.79041 -3.16218
RightLeg  4.577 0.928708 -0.392829
RightFoot  6.15404 -1.64827 10.957
RightToes  -1.11029e-010 1.2921e-014 -6.02303e-014
Spine  9.10101 1.46869 4.07109
Spine1  -1.94237 2.96703 -6.44062
HEad  -13.9052 37.9133 -14.6181
LeftShoulder1  1.37195 0.0990972 -34.2242
LeftArm  -10.6625 -11.2944 -31.0846
LeftForeArm  21.5292 -49.1393 -11.3512
LeftHand  0.0295282 -1.71529 -0.331728
RightShoulder  7.1135 9.94384 46.3007
RightArm  14.6181 -1.2157 12.6886
RightForeArm  24.2165 41.7289 8.39012
RightHand  -0.699856 4.39348 -8.56967
LeftUpLeg  5.26622 -1.6592 2.9974
LeftLeg  15.9806 -4.15544 -0.156401
LeftFoot  -22.4693 0.558869 4.34774
LeftToes  -1.9349e-011 -1.19469e-011 -2.02219e-012
